<svg xmlns="http://www.w3.org/2000/svg" xmlns:xlink="http://www.w3.org/1999/xlink" width="500" zoomAndPan="magnify" viewBox="0 0 375 374.999991" height="500" preserveAspectRatio="xMidYMid meet" version="1.0"><defs><g/><clipPath id="eed5e403c9"><path d="M 106 214 L 253.402344 214 L 253.402344 266 L 106 266 Z M 106 214 " clip-rule="nonzero"/></clipPath></defs><path fill="#5e17eb" d="M 184.347656 278.796875 C 186.96875 278.015625 189.523438 277.121094 192.007812 276.121094 C 149.015625 284.628906 105.828125 259.152344 93.101562 216.300781 C 80.375 173.449219 102.660156 128.527344 143.328125 112.191406 C 140.699219 112.710938 138.070312 113.351562 135.449219 114.128906 C 89.980469 127.632812 64.066406 175.441406 77.566406 220.914062 C 91.070312 266.382812 138.878906 292.296875 184.347656 278.796875 " fill-opacity="1" fill-rule="nonzero"/><path fill="#8c52ff" d="M 77.933594 256.996094 C 80.214844 258.785156 82.554688 260.441406 84.941406 261.976562 C 51.222656 230.035156 46.753906 177.078125 75.984375 139.796875 C 105.21875 102.515625 157.710938 94.222656 196.773438 119.351562 C 194.710938 117.398438 192.550781 115.519531 190.269531 113.734375 C 150.707031 82.714844 93.492188 89.636719 62.46875 129.199219 C 31.449219 168.757812 38.375 225.976562 77.933594 256.996094 " fill-opacity="1" fill-rule="nonzero"/><g clip-path="url(#eed5e403c9)"><path fill="#8c52ff" d="M 162.582031 252.839844 C 139.121094 246.53125 119.824219 232.464844 106.703125 214.148438 C 117.046875 236.992188 137.15625 255.195312 163.265625 262.210938 C 197.367188 271.378906 232.183594 258.902344 253.136719 233.191406 C 228.773438 253.265625 195.390625 261.65625 162.582031 252.839844 " fill-opacity="1" fill-rule="nonzero"/></g><g fill="#002855" fill-opacity="1"><g transform="translate(111.825943, 205.566416)"><g><path d="M 15.546875 -9.34375 L 28.125 -37.359375 L 36.734375 -37.359375 L 18.296875 0 L 10.4375 0 L 3.71875 -37.359375 L 11.796875 -37.359375 Z M 15.546875 -9.34375 "/></g></g></g><g fill="#002855" fill-opacity="1"><g transform="translate(142.934573, 205.566416)"><g><path d="M 7.71875 0 L 0.4375 0 L 5.265625 -27.765625 L 12.546875 -27.765625 Z M 6.109375 -34.8125 C 6.078125 -35.957031 6.453125 -36.90625 7.234375 -37.65625 C 8.023438 -38.414062 8.972656 -38.796875 10.078125 -38.796875 C 11.171875 -38.828125 12.117188 -38.488281 12.921875 -37.78125 C 13.734375 -37.082031 14.15625 -36.179688 14.1875 -35.078125 C 14.21875 -34.015625 13.859375 -33.085938 13.109375 -32.296875 C 12.367188 -31.515625 11.40625 -31.109375 10.21875 -31.078125 C 9.132812 -31.035156 8.1875 -31.359375 7.375 -32.046875 C 6.5625 -32.734375 6.140625 -33.65625 6.109375 -34.8125 Z M 6.109375 -34.8125 "/></g></g></g><g fill="#002855" fill-opacity="1"><g transform="translate(154.239913, 205.566416)"><g><path d="M 14.75 -34.59375 L 13.546875 -27.765625 L 18.171875 -27.765625 L 17.21875 -22.328125 L 12.59375 -22.328125 L 10.234375 -8.421875 C 10.128906 -7.546875 10.195312 -6.875 10.4375 -6.40625 C 10.675781 -5.945312 11.257812 -5.703125 12.1875 -5.671875 C 12.457031 -5.648438 13.191406 -5.691406 14.390625 -5.796875 L 13.875 -0.125 C 12.59375 0.300781 11.207031 0.5 9.71875 0.46875 C 7.34375 0.425781 5.570312 -0.316406 4.40625 -1.765625 C 3.25 -3.222656 2.769531 -5.191406 2.96875 -7.671875 L 5.359375 -22.328125 L 1.4375 -22.328125 L 2.390625 -27.765625 L 6.3125 -27.765625 L 7.484375 -34.59375 Z M 14.75 -34.59375 "/></g></g></g><g fill="#002855" fill-opacity="1"><g transform="translate(169.239128, 205.566416)"><g><path d="M 16.140625 0 C 15.921875 -0.695312 15.828125 -1.535156 15.859375 -2.515625 C 13.765625 -0.429688 11.40625 0.578125 8.78125 0.515625 C 6.34375 0.484375 4.320312 -0.304688 2.71875 -1.859375 C 1.125 -3.410156 0.378906 -5.320312 0.484375 -7.59375 C 0.609375 -10.625 1.878906 -12.945312 4.296875 -14.5625 C 6.710938 -16.175781 9.957031 -16.984375 14.03125 -16.984375 L 17.421875 -16.9375 L 17.78125 -18.609375 C 17.882812 -19.171875 17.910156 -19.707031 17.859375 -20.21875 C 17.773438 -21.019531 17.472656 -21.644531 16.953125 -22.09375 C 16.429688 -22.550781 15.738281 -22.789062 14.875 -22.8125 C 13.75 -22.84375 12.789062 -22.5625 12 -21.96875 C 11.21875 -21.382812 10.71875 -20.535156 10.5 -19.421875 L 3.234375 -19.390625 C 3.347656 -22.046875 4.5625 -24.195312 6.875 -25.84375 C 9.195312 -27.5 12.0625 -28.3125 15.46875 -28.28125 C 18.613281 -28.207031 21.078125 -27.269531 22.859375 -25.46875 C 24.640625 -23.664062 25.382812 -21.34375 25.09375 -18.5 L 22.96875 -5.203125 L 22.828125 -3.5625 C 22.796875 -2.351562 22.941406 -1.328125 23.265625 -0.484375 L 23.25 0 Z M 10.578125 -5.109375 C 12.660156 -5.035156 14.476562 -5.941406 16.03125 -7.828125 L 16.9375 -12.625 L 14.421875 -12.65625 C 11.753906 -12.582031 9.828125 -11.769531 8.640625 -10.21875 C 8.210938 -9.644531 7.945312 -8.953125 7.84375 -8.140625 C 7.707031 -7.210938 7.898438 -6.476562 8.421875 -5.9375 C 8.953125 -5.394531 9.671875 -5.117188 10.578125 -5.109375 Z M 10.578125 -5.109375 "/></g></g></g><g fill="#5e17eb" fill-opacity="1"><g transform="translate(192.533591, 204.882335)"><g><path d="M 30.078125 0 L 22.78125 0 L 12.390625 -24.90625 L 8.0625 0 L 0.53125 0 L 7.03125 -37.359375 L 14.296875 -37.359375 L 24.703125 -12.390625 L 29.046875 -37.359375 L 36.53125 -37.359375 Z M 30.078125 0 "/></g></g></g><g fill="#5e17eb" fill-opacity="1"><g transform="translate(226.310022, 204.882335)"><g><path d="M 15.953125 -28.28125 C 18.398438 -28.238281 20.507812 -27.601562 22.28125 -26.375 C 24.050781 -25.15625 25.347656 -23.472656 26.171875 -21.328125 C 27.003906 -19.179688 27.300781 -16.800781 27.0625 -14.1875 C 26.675781 -9.769531 25.144531 -6.195312 22.46875 -3.46875 C 19.789062 -0.75 16.484375 0.578125 12.546875 0.515625 C 10.128906 0.484375 8.039062 -0.132812 6.28125 -1.34375 C 4.519531 -2.550781 3.21875 -4.222656 2.375 -6.359375 C 1.539062 -8.492188 1.242188 -10.851562 1.484375 -13.4375 C 1.929688 -18.03125 3.488281 -21.675781 6.15625 -24.375 C 8.820312 -27.070312 12.085938 -28.375 15.953125 -28.28125 Z M 8.640625 -10.796875 C 8.679688 -9.160156 9.066406 -7.863281 9.796875 -6.90625 C 10.535156 -5.957031 11.570312 -5.46875 12.90625 -5.4375 C 15.125 -5.375 16.863281 -6.394531 18.125 -8.5 C 19.394531 -10.613281 19.988281 -13.390625 19.90625 -16.828125 C 19.84375 -18.472656 19.445312 -19.785156 18.71875 -20.765625 C 17.988281 -21.753906 16.945312 -22.265625 15.59375 -22.296875 C 13.4375 -22.367188 11.710938 -21.351562 10.421875 -19.25 C 9.140625 -17.15625 8.546875 -14.335938 8.640625 -10.796875 Z M 8.640625 -10.796875 "/></g></g></g><g fill="#5e17eb" fill-opacity="1"><g transform="translate(252.903912, 204.882335)"><g><path d="M 11.75 -9.15625 L 19.65625 -27.765625 L 27.453125 -27.765625 L 14.03125 0 L 7.109375 0 L 2.359375 -27.765625 L 9.703125 -27.765625 Z M 11.75 -9.15625 "/></g></g></g><g fill="#5e17eb" fill-opacity="1"><g transform="translate(276.445215, 204.882335)"><g><path d="M 16.140625 0 C 15.921875 -0.695312 15.828125 -1.535156 15.859375 -2.515625 C 13.765625 -0.429688 11.40625 0.578125 8.78125 0.515625 C 6.34375 0.484375 4.320312 -0.304688 2.71875 -1.859375 C 1.125 -3.410156 0.378906 -5.320312 0.484375 -7.59375 C 0.609375 -10.625 1.878906 -12.945312 4.296875 -14.5625 C 6.710938 -16.175781 9.957031 -16.984375 14.03125 -16.984375 L 17.421875 -16.9375 L 17.78125 -18.609375 C 17.882812 -19.171875 17.910156 -19.707031 17.859375 -20.21875 C 17.773438 -21.019531 17.472656 -21.644531 16.953125 -22.09375 C 16.429688 -22.550781 15.738281 -22.789062 14.875 -22.8125 C 13.75 -22.84375 12.789062 -22.5625 12 -21.96875 C 11.21875 -21.382812 10.71875 -20.535156 10.5 -19.421875 L 3.234375 -19.390625 C 3.347656 -22.046875 4.5625 -24.195312 6.875 -25.84375 C 9.195312 -27.5 12.0625 -28.3125 15.46875 -28.28125 C 18.613281 -28.207031 21.078125 -27.269531 22.859375 -25.46875 C 24.640625 -23.664062 25.382812 -21.34375 25.09375 -18.5 L 22.96875 -5.203125 L 22.828125 -3.5625 C 22.796875 -2.351562 22.941406 -1.328125 23.265625 -0.484375 L 23.25 0 Z M 10.578125 -5.109375 C 12.660156 -5.035156 14.476562 -5.941406 16.03125 -7.828125 L 16.9375 -12.625 L 14.421875 -12.65625 C 11.753906 -12.582031 9.828125 -11.769531 8.640625 -10.21875 C 8.210938 -9.644531 7.945312 -8.953125 7.84375 -8.140625 C 7.707031 -7.210938 7.898438 -6.476562 8.421875 -5.9375 C 8.953125 -5.394531 9.671875 -5.117188 10.578125 -5.109375 Z M 10.578125 -5.109375 "/></g></g></g><g fill="#5e17eb" fill-opacity="1"><g transform="translate(135.103707, 224.443989)"><g><path d="M 0.25 0 L 2.828125 -12.125 L 6.171875 -12.125 C 8.316406 -12.125 9.816406 -11.597656 10.671875 -10.546875 C 11.535156 -9.492188 11.796875 -7.90625 11.453125 -5.78125 C 11.234375 -4.488281 10.765625 -3.410156 10.046875 -2.546875 C 9.335938 -1.691406 8.429688 -1.050781 7.328125 -0.625 C 6.222656 -0.207031 4.984375 0 3.609375 0 Z M 2.296875 -1.4375 L 3.859375 -1.4375 C 4.847656 -1.4375 5.75 -1.578125 6.5625 -1.859375 C 7.375 -2.140625 8.054688 -2.609375 8.609375 -3.265625 C 9.171875 -3.921875 9.539062 -4.796875 9.71875 -5.890625 C 10.007812 -7.597656 9.84375 -8.820312 9.21875 -9.5625 C 8.601562 -10.300781 7.46875 -10.671875 5.8125 -10.671875 L 4.265625 -10.671875 Z M 2.296875 -1.4375 "/></g></g></g><g fill="#5e17eb" fill-opacity="1"><g transform="translate(147.330516, 224.443989)"><g><path d="M 4.3125 0.21875 C 3.132812 0.21875 2.203125 -0.125 1.515625 -0.8125 C 0.828125 -1.5 0.484375 -2.429688 0.484375 -3.609375 C 0.484375 -4.660156 0.691406 -5.601562 1.109375 -6.4375 C 1.523438 -7.269531 2.117188 -7.925781 2.890625 -8.40625 C 3.660156 -8.894531 4.566406 -9.140625 5.609375 -9.140625 C 6.421875 -9.140625 7.09375 -8.972656 7.625 -8.640625 C 8.15625 -8.316406 8.554688 -7.875 8.828125 -7.3125 C 9.097656 -6.75 9.234375 -6.125 9.234375 -5.4375 C 9.234375 -5.007812 9.175781 -4.554688 9.0625 -4.078125 L 2.109375 -4.078125 C 2.097656 -3.992188 2.09375 -3.910156 2.09375 -3.828125 C 2.09375 -3.742188 2.09375 -3.660156 2.09375 -3.578125 C 2.09375 -2.960938 2.207031 -2.472656 2.4375 -2.109375 C 2.675781 -1.753906 2.984375 -1.5 3.359375 -1.34375 C 3.734375 -1.195312 4.113281 -1.125 4.5 -1.125 C 5.007812 -1.125 5.441406 -1.203125 5.796875 -1.359375 C 6.160156 -1.523438 6.472656 -1.742188 6.734375 -2.015625 L 8.140625 -1.578125 C 7.734375 -1.046875 7.210938 -0.613281 6.578125 -0.28125 C 5.941406 0.0507812 5.1875 0.21875 4.3125 0.21875 Z M 2.328125 -5.3125 L 7.640625 -5.3125 C 7.648438 -5.375 7.65625 -5.425781 7.65625 -5.46875 C 7.65625 -5.519531 7.65625 -5.570312 7.65625 -5.625 C 7.65625 -5.988281 7.578125 -6.335938 7.421875 -6.671875 C 7.273438 -7.015625 7.035156 -7.296875 6.703125 -7.515625 C 6.367188 -7.734375 5.929688 -7.84375 5.390625 -7.84375 C 4.941406 -7.84375 4.503906 -7.742188 4.078125 -7.546875 C 3.660156 -7.347656 3.289062 -7.0625 2.96875 -6.6875 C 2.65625 -6.3125 2.441406 -5.851562 2.328125 -5.3125 Z M 2.328125 -5.3125 "/></g></g></g><g fill="#5e17eb" fill-opacity="1"><g transform="translate(157.162764, 224.443989)"><g><path d="M 3.859375 0.21875 C 2.953125 0.21875 2.191406 0.046875 1.578125 -0.296875 C 0.960938 -0.648438 0.5 -1.234375 0.1875 -2.046875 L 1.734375 -2.578125 C 1.835938 -2.046875 2.101562 -1.648438 2.53125 -1.390625 C 2.96875 -1.140625 3.429688 -1.015625 3.921875 -1.015625 C 4.410156 -1.015625 4.859375 -1.140625 5.265625 -1.390625 C 5.679688 -1.648438 5.890625 -2.015625 5.890625 -2.484375 C 5.890625 -2.828125 5.769531 -3.09375 5.53125 -3.28125 C 5.289062 -3.46875 4.976562 -3.617188 4.59375 -3.734375 C 4.21875 -3.859375 3.816406 -3.976562 3.390625 -4.09375 C 2.960938 -4.207031 2.554688 -4.359375 2.171875 -4.546875 C 1.796875 -4.734375 1.488281 -4.988281 1.25 -5.3125 C 1.007812 -5.644531 0.890625 -6.082031 0.890625 -6.625 C 0.890625 -7.1875 1.054688 -7.648438 1.390625 -8.015625 C 1.734375 -8.390625 2.164062 -8.671875 2.6875 -8.859375 C 3.21875 -9.046875 3.773438 -9.140625 4.359375 -9.140625 C 4.847656 -9.140625 5.328125 -9.066406 5.796875 -8.921875 C 6.273438 -8.785156 6.691406 -8.582031 7.046875 -8.3125 C 7.410156 -8.039062 7.664062 -7.703125 7.8125 -7.296875 L 6.375 -6.78125 C 6.25 -7.144531 5.972656 -7.421875 5.546875 -7.609375 C 5.128906 -7.796875 4.691406 -7.890625 4.234375 -7.890625 C 3.765625 -7.890625 3.347656 -7.789062 2.984375 -7.59375 C 2.617188 -7.40625 2.4375 -7.113281 2.4375 -6.71875 C 2.4375 -6.382812 2.554688 -6.125 2.796875 -5.9375 C 3.035156 -5.75 3.347656 -5.59375 3.734375 -5.46875 C 4.117188 -5.351562 4.523438 -5.238281 4.953125 -5.125 C 5.390625 -5.007812 5.800781 -4.851562 6.1875 -4.65625 C 6.570312 -4.46875 6.882812 -4.210938 7.125 -3.890625 C 7.363281 -3.566406 7.484375 -3.132812 7.484375 -2.59375 C 7.484375 -1.976562 7.320312 -1.460938 7 -1.046875 C 6.675781 -0.628906 6.238281 -0.3125 5.6875 -0.09375 C 5.144531 0.113281 4.535156 0.21875 3.859375 0.21875 Z M 3.859375 0.21875 "/></g></g></g><g fill="#5e17eb" fill-opacity="1"><g transform="translate(165.852148, 224.443989)"><g><path d="M 4.15625 -10.71875 C 3.851562 -10.71875 3.585938 -10.828125 3.359375 -11.046875 C 3.140625 -11.273438 3.03125 -11.539062 3.03125 -11.84375 C 3.03125 -12.15625 3.140625 -12.421875 3.359375 -12.640625 C 3.585938 -12.867188 3.851562 -12.984375 4.15625 -12.984375 C 4.46875 -12.984375 4.734375 -12.867188 4.953125 -12.640625 C 5.179688 -12.421875 5.296875 -12.15625 5.296875 -11.84375 C 5.296875 -11.539062 5.179688 -11.273438 4.953125 -11.046875 C 4.734375 -10.828125 4.46875 -10.71875 4.15625 -10.71875 Z M 0.828125 0 L 2.484375 -7.765625 L 1.03125 -7.765625 L 1.28125 -9 L 4.296875 -9 L 2.390625 0 Z M 0.828125 0 "/></g></g></g><g fill="#5e17eb" fill-opacity="1"><g transform="translate(170.750128, 224.443989)"><g><path d="M 3.265625 3.453125 C 2.503906 3.453125 1.8125 3.269531 1.1875 2.90625 C 0.5625 2.539062 0.140625 2.046875 -0.078125 1.421875 L 1.5625 0.96875 C 1.625 1.25 1.804688 1.507812 2.109375 1.75 C 2.410156 2 2.832031 2.125 3.375 2.125 C 4.007812 2.125 4.515625 2.007812 4.890625 1.78125 C 5.265625 1.5625 5.550781 1.257812 5.75 0.875 C 5.945312 0.488281 6.097656 0.0546875 6.203125 -0.421875 L 6.4375 -1.453125 C 6.132812 -1.066406 5.765625 -0.773438 5.328125 -0.578125 C 4.898438 -0.390625 4.445312 -0.296875 3.96875 -0.296875 C 3.414062 -0.296875 2.878906 -0.429688 2.359375 -0.703125 C 1.835938 -0.972656 1.410156 -1.382812 1.078125 -1.9375 C 0.742188 -2.5 0.578125 -3.195312 0.578125 -4.03125 C 0.578125 -4.957031 0.75 -5.8125 1.09375 -6.59375 C 1.4375 -7.375 1.925781 -8 2.5625 -8.46875 C 3.195312 -8.9375 3.953125 -9.171875 4.828125 -9.171875 C 5.460938 -9.171875 6.046875 -9.03125 6.578125 -8.75 C 7.117188 -8.46875 7.503906 -8.078125 7.734375 -7.578125 L 8.453125 -9 L 9.578125 -9 C 9.285156 -7.644531 9 -6.289062 8.71875 -4.9375 C 8.4375 -3.582031 8.148438 -2.222656 7.859375 -0.859375 C 7.796875 -0.585938 7.722656 -0.265625 7.640625 0.109375 C 7.554688 0.484375 7.425781 0.863281 7.25 1.25 C 7.070312 1.632812 6.820312 1.992188 6.5 2.328125 C 6.175781 2.660156 5.75 2.929688 5.21875 3.140625 C 4.695312 3.347656 4.046875 3.453125 3.265625 3.453125 Z M 4.5 -1.609375 C 5.0625 -1.609375 5.546875 -1.796875 5.953125 -2.171875 C 6.367188 -2.554688 6.6875 -3.035156 6.90625 -3.609375 C 7.132812 -4.191406 7.25 -4.78125 7.25 -5.375 C 7.25 -6.175781 7.023438 -6.785156 6.578125 -7.203125 C 6.128906 -7.628906 5.601562 -7.84375 5 -7.84375 C 4.382812 -7.84375 3.867188 -7.660156 3.453125 -7.296875 C 3.035156 -6.929688 2.71875 -6.460938 2.5 -5.890625 C 2.289062 -5.328125 2.1875 -4.726562 2.1875 -4.09375 C 2.1875 -3.320312 2.398438 -2.710938 2.828125 -2.265625 C 3.253906 -1.828125 3.8125 -1.609375 4.5 -1.609375 Z M 4.5 -1.609375 "/></g></g></g><g fill="#5e17eb" fill-opacity="1"><g transform="translate(180.818204, 224.443989)"><g><path d="M 0.140625 0 L 2.046875 -9 L 3.203125 -9 L 3.3125 -7.75 C 3.613281 -8.132812 4.007812 -8.460938 4.5 -8.734375 C 5 -9.003906 5.648438 -9.140625 6.453125 -9.140625 C 7.210938 -9.140625 7.804688 -8.929688 8.234375 -8.515625 C 8.671875 -8.109375 8.890625 -7.476562 8.890625 -6.625 C 8.890625 -6.207031 8.832031 -5.734375 8.71875 -5.203125 L 7.59375 0 L 6.0625 0 L 7.125 -5.0625 C 7.238281 -5.59375 7.296875 -6.03125 7.296875 -6.375 C 7.296875 -6.90625 7.171875 -7.273438 6.921875 -7.484375 C 6.679688 -7.691406 6.300781 -7.796875 5.78125 -7.796875 C 5.351562 -7.796875 4.929688 -7.695312 4.515625 -7.5 C 4.109375 -7.3125 3.742188 -6.988281 3.421875 -6.53125 C 3.097656 -6.070312 2.851562 -5.445312 2.6875 -4.65625 L 1.703125 0 Z M 0.140625 0 "/></g></g></g><g fill="#5e17eb" fill-opacity="1"><g transform="translate(190.795575, 224.443989)"><g><path d="M 3.859375 0.21875 C 2.953125 0.21875 2.191406 0.046875 1.578125 -0.296875 C 0.960938 -0.648438 0.5 -1.234375 0.1875 -2.046875 L 1.734375 -2.578125 C 1.835938 -2.046875 2.101562 -1.648438 2.53125 -1.390625 C 2.96875 -1.140625 3.429688 -1.015625 3.921875 -1.015625 C 4.410156 -1.015625 4.859375 -1.140625 5.265625 -1.390625 C 5.679688 -1.648438 5.890625 -2.015625 5.890625 -2.484375 C 5.890625 -2.828125 5.769531 -3.09375 5.53125 -3.28125 C 5.289062 -3.46875 4.976562 -3.617188 4.59375 -3.734375 C 4.21875 -3.859375 3.816406 -3.976562 3.390625 -4.09375 C 2.960938 -4.207031 2.554688 -4.359375 2.171875 -4.546875 C 1.796875 -4.734375 1.488281 -4.988281 1.25 -5.3125 C 1.007812 -5.644531 0.890625 -6.082031 0.890625 -6.625 C 0.890625 -7.1875 1.054688 -7.648438 1.390625 -8.015625 C 1.734375 -8.390625 2.164062 -8.671875 2.6875 -8.859375 C 3.21875 -9.046875 3.773438 -9.140625 4.359375 -9.140625 C 4.847656 -9.140625 5.328125 -9.066406 5.796875 -8.921875 C 6.273438 -8.785156 6.691406 -8.582031 7.046875 -8.3125 C 7.410156 -8.039062 7.664062 -7.703125 7.8125 -7.296875 L 6.375 -6.78125 C 6.25 -7.144531 5.972656 -7.421875 5.546875 -7.609375 C 5.128906 -7.796875 4.691406 -7.890625 4.234375 -7.890625 C 3.765625 -7.890625 3.347656 -7.789062 2.984375 -7.59375 C 2.617188 -7.40625 2.4375 -7.113281 2.4375 -6.71875 C 2.4375 -6.382812 2.554688 -6.125 2.796875 -5.9375 C 3.035156 -5.75 3.347656 -5.59375 3.734375 -5.46875 C 4.117188 -5.351562 4.523438 -5.238281 4.953125 -5.125 C 5.390625 -5.007812 5.800781 -4.851562 6.1875 -4.65625 C 6.570312 -4.46875 6.882812 -4.210938 7.125 -3.890625 C 7.363281 -3.566406 7.484375 -3.132812 7.484375 -2.59375 C 7.484375 -1.976562 7.320312 -1.460938 7 -1.046875 C 6.675781 -0.628906 6.238281 -0.3125 5.6875 -0.09375 C 5.144531 0.113281 4.535156 0.21875 3.859375 0.21875 Z M 3.859375 0.21875 "/></g></g></g><g fill="#5e17eb" fill-opacity="1"><g transform="translate(199.484959, 224.443989)"><g/></g></g><g fill="#5e17eb" fill-opacity="1"><g transform="translate(204.56435, 224.443989)"><g><path d="M 3.703125 0.21875 C 2.941406 0.21875 2.304688 0.078125 1.796875 -0.203125 C 1.285156 -0.492188 0.898438 -0.875 0.640625 -1.34375 C 0.390625 -1.820312 0.265625 -2.351562 0.265625 -2.9375 C 0.265625 -3.582031 0.429688 -4.175781 0.765625 -4.71875 C 1.109375 -5.257812 1.566406 -5.726562 2.140625 -6.125 C 2.710938 -6.53125 3.34375 -6.84375 4.03125 -7.0625 C 3.8125 -7.40625 3.632812 -7.765625 3.5 -8.140625 C 3.363281 -8.523438 3.296875 -8.914062 3.296875 -9.3125 C 3.296875 -9.925781 3.441406 -10.457031 3.734375 -10.90625 C 4.035156 -11.363281 4.445312 -11.710938 4.96875 -11.953125 C 5.488281 -12.191406 6.078125 -12.3125 6.734375 -12.3125 C 7.285156 -12.3125 7.785156 -12.222656 8.234375 -12.046875 C 8.691406 -11.878906 9.054688 -11.625 9.328125 -11.28125 C 9.597656 -10.945312 9.734375 -10.523438 9.734375 -10.015625 C 9.734375 -9.410156 9.570312 -8.890625 9.25 -8.453125 C 8.9375 -8.023438 8.519531 -7.660156 8 -7.359375 C 7.488281 -7.054688 6.945312 -6.789062 6.375 -6.5625 L 8.265625 -4.03125 C 8.535156 -4.34375 8.785156 -4.71875 9.015625 -5.15625 C 9.253906 -5.59375 9.445312 -6.050781 9.59375 -6.53125 L 11.171875 -6.53125 C 10.984375 -5.882812 10.703125 -5.242188 10.328125 -4.609375 C 9.960938 -3.984375 9.5625 -3.394531 9.125 -2.84375 L 11.234375 0 L 9.203125 0 L 8.03125 -1.5625 C 7.40625 -1.019531 6.742188 -0.585938 6.046875 -0.265625 C 5.347656 0.0546875 4.566406 0.21875 3.703125 0.21875 Z M 5.65625 -7.546875 C 6.09375 -7.691406 6.503906 -7.867188 6.890625 -8.078125 C 7.285156 -8.296875 7.609375 -8.546875 7.859375 -8.828125 C 8.109375 -9.117188 8.234375 -9.441406 8.234375 -9.796875 C 8.234375 -10.117188 8.117188 -10.40625 7.890625 -10.65625 C 7.660156 -10.914062 7.285156 -11.046875 6.765625 -11.046875 C 6.191406 -11.046875 5.734375 -10.898438 5.390625 -10.609375 C 5.054688 -10.316406 4.890625 -9.925781 4.890625 -9.4375 C 4.890625 -9.144531 4.941406 -8.863281 5.046875 -8.59375 C 5.160156 -8.332031 5.28125 -8.109375 5.40625 -7.921875 C 5.539062 -7.742188 5.625 -7.617188 5.65625 -7.546875 Z M 3.84375 -1.203125 C 4.488281 -1.203125 5.078125 -1.328125 5.609375 -1.578125 C 6.148438 -1.828125 6.695312 -2.175781 7.25 -2.625 L 4.765625 -6.046875 C 3.921875 -5.773438 3.21875 -5.382812 2.65625 -4.875 C 2.101562 -4.375 1.828125 -3.75 1.828125 -3 C 1.828125 -2.40625 2.015625 -1.957031 2.390625 -1.65625 C 2.765625 -1.351562 3.25 -1.203125 3.84375 -1.203125 Z M 3.84375 -1.203125 "/></g></g></g><g fill="#5e17eb" fill-opacity="1"><g transform="translate(217.099555, 224.443989)"><g/></g></g><g fill="#5e17eb" fill-opacity="1"><g transform="translate(222.178946, 224.443989)"><g><path d="M 0.25 0 L 2.828125 -12.125 L 5.65625 -12.125 L 6.78125 -2.28125 L 12.078125 -12.125 L 15.015625 -12.125 L 12.4375 0 L 10.703125 0 L 12.859375 -10.140625 L 7.25 0 L 5.53125 0 L 4.234375 -10.4375 L 2 0 Z M 0.25 0 "/></g></g></g><g fill="#5e17eb" fill-opacity="1"><g transform="translate(237.126863, 224.443989)"><g><path d="M 2.796875 0.21875 C 2.015625 0.21875 1.367188 0.0078125 0.859375 -0.40625 C 0.347656 -0.832031 0.09375 -1.40625 0.09375 -2.125 C 0.09375 -2.726562 0.25 -3.226562 0.5625 -3.625 C 0.882812 -4.03125 1.300781 -4.351562 1.8125 -4.59375 C 2.332031 -4.832031 2.890625 -5.015625 3.484375 -5.140625 C 4.085938 -5.265625 4.671875 -5.359375 5.234375 -5.421875 C 5.804688 -5.484375 6.300781 -5.539062 6.71875 -5.59375 C 6.75 -5.757812 6.773438 -5.914062 6.796875 -6.0625 C 6.828125 -6.207031 6.84375 -6.34375 6.84375 -6.46875 C 6.84375 -7.425781 6.285156 -7.90625 5.171875 -7.90625 C 4.609375 -7.90625 4.132812 -7.78125 3.75 -7.53125 C 3.363281 -7.289062 3.066406 -6.953125 2.859375 -6.515625 L 1.5 -6.9375 C 1.820312 -7.613281 2.285156 -8.148438 2.890625 -8.546875 C 3.492188 -8.941406 4.226562 -9.140625 5.09375 -9.140625 C 6.144531 -9.140625 6.953125 -8.925781 7.515625 -8.5 C 8.085938 -8.082031 8.375 -7.429688 8.375 -6.546875 C 8.375 -6.335938 8.359375 -6.128906 8.328125 -5.921875 C 8.304688 -5.722656 8.253906 -5.4375 8.171875 -5.0625 C 8.085938 -4.6875 7.96875 -4.132812 7.8125 -3.40625 C 7.65625 -2.65625 7.550781 -2.003906 7.5 -1.453125 C 7.445312 -0.910156 7.414062 -0.425781 7.40625 0 L 5.96875 0 L 5.890625 -1.140625 C 5.492188 -0.691406 5.054688 -0.351562 4.578125 -0.125 C 4.097656 0.101562 3.503906 0.21875 2.796875 0.21875 Z M 3.28125 -1.03125 C 4.101562 -1.03125 4.804688 -1.304688 5.390625 -1.859375 C 5.984375 -2.410156 6.359375 -3.144531 6.515625 -4.0625 L 6.5625 -4.375 C 5.5625 -4.28125 4.703125 -4.164062 3.984375 -4.03125 C 3.273438 -3.90625 2.734375 -3.707031 2.359375 -3.4375 C 1.984375 -3.175781 1.796875 -2.785156 1.796875 -2.265625 C 1.796875 -1.859375 1.941406 -1.550781 2.234375 -1.34375 C 2.523438 -1.132812 2.875 -1.03125 3.28125 -1.03125 Z M 3.28125 -1.03125 "/></g></g></g><g fill="#5e17eb" fill-opacity="1"><g transform="translate(246.578148, 224.443989)"><g><path d="M 0.140625 0 L 2.046875 -9 L 3.1875 -9 L 3.34375 -7.3125 C 3.71875 -7.84375 4.15625 -8.28125 4.65625 -8.625 C 5.15625 -8.96875 5.851562 -9.140625 6.75 -9.140625 L 6.953125 -9.140625 L 6.609375 -7.53125 C 6.265625 -7.539062 5.945312 -7.519531 5.65625 -7.46875 C 4.738281 -7.320312 4.035156 -6.914062 3.546875 -6.25 C 3.054688 -5.582031 2.703125 -4.738281 2.484375 -3.71875 L 1.703125 0 Z M 0.140625 0 "/></g></g></g><g fill="#5e17eb" fill-opacity="1"><g transform="translate(252.981804, 224.443989)"><g><path d="M 0.125 0 L 2.703125 -12.125 L 4.265625 -12.125 L 2.78125 -5.171875 L 7.03125 -9 L 9.0625 -9 L 4.828125 -5.25 L 7.53125 0 L 5.828125 0 L 3.671875 -4.203125 L 2.328125 -3.015625 L 1.6875 0 Z M 0.125 0 "/></g></g></g><g fill="#5e17eb" fill-opacity="1"><g transform="translate(261.81631, 224.443989)"><g><path d="M 4.3125 0.21875 C 3.132812 0.21875 2.203125 -0.125 1.515625 -0.8125 C 0.828125 -1.5 0.484375 -2.429688 0.484375 -3.609375 C 0.484375 -4.660156 0.691406 -5.601562 1.109375 -6.4375 C 1.523438 -7.269531 2.117188 -7.925781 2.890625 -8.40625 C 3.660156 -8.894531 4.566406 -9.140625 5.609375 -9.140625 C 6.421875 -9.140625 7.09375 -8.972656 7.625 -8.640625 C 8.15625 -8.316406 8.554688 -7.875 8.828125 -7.3125 C 9.097656 -6.75 9.234375 -6.125 9.234375 -5.4375 C 9.234375 -5.007812 9.175781 -4.554688 9.0625 -4.078125 L 2.109375 -4.078125 C 2.097656 -3.992188 2.09375 -3.910156 2.09375 -3.828125 C 2.09375 -3.742188 2.09375 -3.660156 2.09375 -3.578125 C 2.09375 -2.960938 2.207031 -2.472656 2.4375 -2.109375 C 2.675781 -1.753906 2.984375 -1.5 3.359375 -1.34375 C 3.734375 -1.195312 4.113281 -1.125 4.5 -1.125 C 5.007812 -1.125 5.441406 -1.203125 5.796875 -1.359375 C 6.160156 -1.523438 6.472656 -1.742188 6.734375 -2.015625 L 8.140625 -1.578125 C 7.734375 -1.046875 7.210938 -0.613281 6.578125 -0.28125 C 5.941406 0.0507812 5.1875 0.21875 4.3125 0.21875 Z M 2.328125 -5.3125 L 7.640625 -5.3125 C 7.648438 -5.375 7.65625 -5.425781 7.65625 -5.46875 C 7.65625 -5.519531 7.65625 -5.570312 7.65625 -5.625 C 7.65625 -5.988281 7.578125 -6.335938 7.421875 -6.671875 C 7.273438 -7.015625 7.035156 -7.296875 6.703125 -7.515625 C 6.367188 -7.734375 5.929688 -7.84375 5.390625 -7.84375 C 4.941406 -7.84375 4.503906 -7.742188 4.078125 -7.546875 C 3.660156 -7.347656 3.289062 -7.0625 2.96875 -6.6875 C 2.65625 -6.3125 2.441406 -5.851562 2.328125 -5.3125 Z M 2.328125 -5.3125 "/></g></g></g><g fill="#5e17eb" fill-opacity="1"><g transform="translate(271.648558, 224.443989)"><g><path d="M 2.90625 0 C 2.195312 0 1.710938 -0.0976562 1.453125 -0.296875 C 1.191406 -0.492188 1.0625 -0.800781 1.0625 -1.21875 C 1.0625 -1.476562 1.125 -1.890625 1.25 -2.453125 L 2.390625 -7.765625 L 0.890625 -7.765625 L 1.140625 -9 L 2.65625 -9 L 3.140625 -11.25 L 4.703125 -11.25 L 4.203125 -9 L 5.9375 -9 L 5.671875 -7.765625 L 3.953125 -7.765625 L 2.90625 -2.890625 C 2.851562 -2.671875 2.8125 -2.472656 2.78125 -2.296875 C 2.75 -2.117188 2.734375 -1.984375 2.734375 -1.890625 C 2.734375 -1.691406 2.785156 -1.550781 2.890625 -1.46875 C 3.003906 -1.394531 3.210938 -1.359375 3.515625 -1.359375 L 4.3125 -1.359375 L 4.03125 0 Z M 2.90625 0 "/></g></g></g><g fill="#5e17eb" fill-opacity="1"><g transform="translate(277.526141, 224.443989)"><g><path d="M 4.15625 -10.71875 C 3.851562 -10.71875 3.585938 -10.828125 3.359375 -11.046875 C 3.140625 -11.273438 3.03125 -11.539062 3.03125 -11.84375 C 3.03125 -12.15625 3.140625 -12.421875 3.359375 -12.640625 C 3.585938 -12.867188 3.851562 -12.984375 4.15625 -12.984375 C 4.46875 -12.984375 4.734375 -12.867188 4.953125 -12.640625 C 5.179688 -12.421875 5.296875 -12.15625 5.296875 -11.84375 C 5.296875 -11.539062 5.179688 -11.273438 4.953125 -11.046875 C 4.734375 -10.828125 4.46875 -10.71875 4.15625 -10.71875 Z M 0.828125 0 L 2.484375 -7.765625 L 1.03125 -7.765625 L 1.28125 -9 L 4.296875 -9 L 2.390625 0 Z M 0.828125 0 "/></g></g></g><g fill="#5e17eb" fill-opacity="1"><g transform="translate(282.42412, 224.443989)"><g><path d="M 0.140625 0 L 2.046875 -9 L 3.203125 -9 L 3.3125 -7.75 C 3.613281 -8.132812 4.007812 -8.460938 4.5 -8.734375 C 5 -9.003906 5.648438 -9.140625 6.453125 -9.140625 C 7.210938 -9.140625 7.804688 -8.929688 8.234375 -8.515625 C 8.671875 -8.109375 8.890625 -7.476562 8.890625 -6.625 C 8.890625 -6.207031 8.832031 -5.734375 8.71875 -5.203125 L 7.59375 0 L 6.0625 0 L 7.125 -5.0625 C 7.238281 -5.59375 7.296875 -6.03125 7.296875 -6.375 C 7.296875 -6.90625 7.171875 -7.273438 6.921875 -7.484375 C 6.679688 -7.691406 6.300781 -7.796875 5.78125 -7.796875 C 5.351562 -7.796875 4.929688 -7.695312 4.515625 -7.5 C 4.109375 -7.3125 3.742188 -6.988281 3.421875 -6.53125 C 3.097656 -6.070312 2.851562 -5.445312 2.6875 -4.65625 L 1.703125 0 Z M 0.140625 0 "/></g></g></g><g fill="#5e17eb" fill-opacity="1"><g transform="translate(292.40149, 224.443989)"><g><path d="M 3.265625 3.453125 C 2.503906 3.453125 1.8125 3.269531 1.1875 2.90625 C 0.5625 2.539062 0.140625 2.046875 -0.078125 1.421875 L 1.5625 0.96875 C 1.625 1.25 1.804688 1.507812 2.109375 1.75 C 2.410156 2 2.832031 2.125 3.375 2.125 C 4.007812 2.125 4.515625 2.007812 4.890625 1.78125 C 5.265625 1.5625 5.550781 1.257812 5.75 0.875 C 5.945312 0.488281 6.097656 0.0546875 6.203125 -0.421875 L 6.4375 -1.453125 C 6.132812 -1.066406 5.765625 -0.773438 5.328125 -0.578125 C 4.898438 -0.390625 4.445312 -0.296875 3.96875 -0.296875 C 3.414062 -0.296875 2.878906 -0.429688 2.359375 -0.703125 C 1.835938 -0.972656 1.410156 -1.382812 1.078125 -1.9375 C 0.742188 -2.5 0.578125 -3.195312 0.578125 -4.03125 C 0.578125 -4.957031 0.75 -5.8125 1.09375 -6.59375 C 1.4375 -7.375 1.925781 -8 2.5625 -8.46875 C 3.195312 -8.9375 3.953125 -9.171875 4.828125 -9.171875 C 5.460938 -9.171875 6.046875 -9.03125 6.578125 -8.75 C 7.117188 -8.46875 7.503906 -8.078125 7.734375 -7.578125 L 8.453125 -9 L 9.578125 -9 C 9.285156 -7.644531 9 -6.289062 8.71875 -4.9375 C 8.4375 -3.582031 8.148438 -2.222656 7.859375 -0.859375 C 7.796875 -0.585938 7.722656 -0.265625 7.640625 0.109375 C 7.554688 0.484375 7.425781 0.863281 7.25 1.25 C 7.070312 1.632812 6.820312 1.992188 6.5 2.328125 C 6.175781 2.660156 5.75 2.929688 5.21875 3.140625 C 4.695312 3.347656 4.046875 3.453125 3.265625 3.453125 Z M 4.5 -1.609375 C 5.0625 -1.609375 5.546875 -1.796875 5.953125 -2.171875 C 6.367188 -2.554688 6.6875 -3.035156 6.90625 -3.609375 C 7.132812 -4.191406 7.25 -4.78125 7.25 -5.375 C 7.25 -6.175781 7.023438 -6.785156 6.578125 -7.203125 C 6.128906 -7.628906 5.601562 -7.84375 5 -7.84375 C 4.382812 -7.84375 3.867188 -7.660156 3.453125 -7.296875 C 3.035156 -6.929688 2.71875 -6.460938 2.5 -5.890625 C 2.289062 -5.328125 2.1875 -4.726562 2.1875 -4.09375 C 2.1875 -3.320312 2.398438 -2.710938 2.828125 -2.265625 C 3.253906 -1.828125 3.8125 -1.609375 4.5 -1.609375 Z M 4.5 -1.609375 "/></g></g></g><g fill="#5e17eb" fill-opacity="1"><g transform="translate(302.470883, 224.443989)"><g/></g></g></svg>